<svg xmlns="http://www.w3.org/2000/svg" width="1200" height="630" viewBox="0 0 1200 630" role="img" aria-label="Flowtally preview">
  <defs>
    <linearGradient id="bg" x1="0" x2="1" y1="0" y2="1">
      <stop offset="0" stop-color="#F8FAFC"/>
      <stop offset="0.52" stop-color="#F1F5F9"/>
      <stop offset="1" stop-color="#E2E8F0"/>
    </linearGradient>
    <radialGradient id="glow" cx="25%" cy="18%" r="70%">
      <stop offset="0" stop-color="#0D9488" stop-opacity=".16"/>
      <stop offset=".55" stop-color="#64748B" stop-opacity=".07"/>
      <stop offset="1" stop-color="#64748B" stop-opacity="0"/>
    </radialGradient>
  </defs>
  <rect width="1200" height="630" fill="url(#bg)"/>
  <rect width="1200" height="630" fill="url(#glow)"/>
  <rect x="74" y="70" width="1052" height="490" rx="28" fill="#FFFFFF" opacity=".72" stroke="#E2E8F0"/>
  <g transform="translate(120 116) scale(1.2)">
    <rect width="64" height="64" rx="14" fill="#FFFFFF"/>
    <rect x="6" y="6" width="52" height="52" rx="12" fill="#F8FAFC" stroke="#E2E8F0" stroke-width="2"/>
    <path d="M19 24c0-6.1 4.3-10 10.8-10h5.3" fill="none" stroke="#0F172A" stroke-width="6" stroke-linecap="round"/>
    <path d="M20 31h15" fill="none" stroke="#0F172A" stroke-width="6" stroke-linecap="round"/>
    <path d="M24 31v19" fill="none" stroke="#0F172A" stroke-width="6" stroke-linecap="round"/>
    <path d="M42 18v28c0 3.3 1.9 5 5.4 5" fill="none" stroke="#0F172A" stroke-width="6" stroke-linecap="round"/>
    <path d="M35 31h15" fill="none" stroke="#0F172A" stroke-width="6" stroke-linecap="round"/>
    <path d="M18 20c8.5-5.9 18.6-7.4 30-4.3" fill="none" stroke="#0D9488" stroke-width="5" stroke-linecap="round"/>
  </g>
  <text x="220" y="160" fill="#0D9488" font-family="Inter, Arial, sans-serif" font-size="28" font-weight="700" letter-spacing="5">LOCAL TORONTO/GTA RESTAURANT SUPPORT</text>
  <text x="120" y="275" fill="#0F172A" font-family="Inter, Arial, sans-serif" font-size="76" font-weight="800">Flowtally</text>
  <text x="120" y="352" fill="#334155" font-family="Inter, Arial, sans-serif" font-size="42" font-weight="650">Save time on admin. See where money is going.</text>
  <text x="120" y="424" fill="#64748B" font-family="Inter, Arial, sans-serif" font-size="30">Invoices. Daily close records. Delivery payouts.</text>
  <rect x="120" y="470" width="294" height="58" rx="14" fill="#0F172A"/>
  <text x="150" y="507" fill="#F8FAFC" font-family="Inter, Arial, sans-serif" font-size="22" font-weight="700">Join Early Pilot</text>
</svg>